<svg id="Capa_1" enable-background="new 0 0 512.028 512.028" height="512" viewBox="0 0 512.028 512.028" width="512" xmlns="http://www.w3.org/2000/svg"><g><path d="m474.191 185.731h-37.193v-93.428c0-46.521-37.848-84.369-84.37-84.369h-193.2c-46.522 0-84.37 37.848-84.37 84.369v62.799c0 4.143 3.358 7.5 7.5 7.5s7.5-3.357 7.5-7.5v-62.799c0-38.25 31.119-69.369 69.37-69.369h193.2c38.251 0 69.37 31.119 69.37 69.369v93.809c-18.352 2.595-32.517 18.398-32.517 37.456v35.043c-4.988-3.169-10.897-5.014-17.232-5.014h-232.442c-6.335 0-12.244 1.844-17.232 5.014v-35.043c0-20.863-16.974-37.837-37.837-37.837h-46.873c-20.863 0-37.837 16.974-37.837 37.837v43.481c-.532.006 6.787 25.463 6.798 25.853 6.675 24.396 10.059 49.591 10.059 74.885v79.819c0 13.225 10.759 23.984 23.984 23.984h26.356v12.973c0 10.77 8.761 19.531 19.531 19.531h32.489c10.77 0 19.531-8.762 19.531-19.531v-12.973h234.504v12.973c0 10.77 8.761 19.531 19.531 19.531h32.489c10.77 0 19.531-8.762 19.531-19.531v-12.973h26.356c13.225 0 23.984-10.76 23.984-23.984v-79.819c0-25.294 3.384-50.489 10.06-74.885 1.343-5.709 6.238-21.166 6.797-25.853v-43.481c0-20.864-16.974-37.837-37.837-37.837zm-334.384 82.866h232.441c8.722.013 17.292 7.633 17.232 17.231v100.608h-38.843c-4.142 0-7.5 3.357-7.5 7.5s3.358 7.5 7.5 7.5h38.843v55.153h-266.905v-55.153h190.982c4.142 0 7.5-3.357 7.5-7.5s-3.358-7.5-7.5-7.5h-190.982v-100.608c-.202-8.296 7.564-17.331 17.232-17.231zm-107.922 179.009v-79.819c0-26.631-3.563-53.158-10.591-78.844l-6.266-22.901v-42.474c0-12.593 10.245-22.837 22.837-22.837h46.873c12.592 0 22.837 10.244 22.837 22.837v233.022h-66.706c-4.954 0-8.984-4.03-8.984-8.984zm91.891 36.957c0 2.499-2.033 4.531-4.531 4.531h-32.489c-2.498 0-4.531-2.032-4.531-4.531v-12.973h41.551zm306.054 0c0 2.499-2.033 4.531-4.531 4.531h-32.489c-2.498 0-4.531-2.032-4.531-4.531v-12.973h41.551zm67.198-218.522-6.266 22.901c-7.028 25.686-10.591 52.213-10.591 78.844v79.819c0 4.954-4.03 8.984-8.984 8.984h-66.706v-233.021c0-12.593 10.245-22.837 22.837-22.837h46.873c12.592 0 22.837 10.244 22.837 22.837z"/><path d="m312.329 107.591c1.464 1.464 3.384 2.196 5.303 2.196s3.839-.732 5.303-2.196l6.49-6.49 6.49 6.49c1.464 1.464 3.384 2.196 5.303 2.196s3.839-.732 5.303-2.196c2.929-2.93 2.929-7.678 0-10.607l-6.489-6.489 6.489-6.489c2.929-2.93 2.929-7.678 0-10.607-2.929-2.928-7.678-2.928-10.606 0l-6.49 6.49-6.49-6.49c-2.928-2.927-7.677-2.929-10.606 0-2.929 2.93-2.929 7.678 0 10.607l6.489 6.489-6.489 6.489c-2.929 2.929-2.929 7.677 0 10.607z"/><path d="m165.535 107.591c1.464 1.464 3.384 2.196 5.303 2.196s3.839-.732 5.303-2.196l6.49-6.49 6.49 6.49c1.464 1.464 3.384 2.196 5.303 2.196s3.839-.732 5.303-2.196c2.929-2.93 2.929-7.678 0-10.607l-6.489-6.489 6.489-6.489c2.929-2.93 2.929-7.678 0-10.607-2.929-2.928-7.678-2.928-10.606 0l-6.49 6.49-6.49-6.49c-2.928-2.927-7.677-2.929-10.606 0-2.929 2.93-2.929 7.678 0 10.607l6.489 6.489-6.489 6.489c-2.93 2.929-2.93 7.677 0 10.607z"/><path d="m312.329 213.505c1.464 1.464 3.384 2.196 5.303 2.196s3.839-.732 5.303-2.196l6.49-6.49 6.49 6.49c1.464 1.464 3.384 2.196 5.303 2.196s3.839-.732 5.303-2.196c2.929-2.93 2.929-7.678 0-10.607l-6.489-6.489 6.489-6.489c2.929-2.93 2.929-7.678 0-10.607-2.929-2.928-7.678-2.928-10.606 0l-6.49 6.49-6.49-6.49c-2.928-2.927-7.677-2.929-10.606 0-2.929 2.93-2.929 7.678 0 10.607l6.489 6.489-6.489 6.489c-2.929 2.929-2.929 7.677 0 10.607z"/><path d="m165.535 213.505c1.464 1.464 3.384 2.196 5.303 2.196s3.839-.732 5.303-2.196l6.49-6.49 6.49 6.49c1.464 1.464 3.384 2.196 5.303 2.196s3.839-.732 5.303-2.196c2.929-2.93 2.929-7.678 0-10.607l-6.489-6.489 6.489-6.489c2.929-2.93 2.929-7.678 0-10.607-2.929-2.928-7.678-2.928-10.606 0l-6.49 6.49-6.49-6.49c-2.928-2.927-7.677-2.929-10.606 0-2.929 2.93-2.929 7.678 0 10.607l6.489 6.489-6.489 6.489c-2.93 2.929-2.93 7.677 0 10.607z"/></g></svg>