<svg id="Capa_1" enable-background="new 0 0 509.6 509.6" height="512" viewBox="0 0 509.6 509.6" width="512" xmlns="http://www.w3.org/2000/svg"><g><path d="m159.973 203.146c-3.998-1.071-8.114 1.299-9.188 5.299-2.591 9.653 1.61 19.952 10.216 25.046 3.447 2.041 7.388 3.119 11.395 3.119h168.711c4.008 0 7.948-1.079 11.395-3.119 8.474-5.015 12.71-15.181 10.3-24.723-1.014-4.016-5.095-6.451-9.108-5.435-4.016 1.014-6.45 5.092-5.435 9.108.793 3.141-.604 6.488-3.397 8.142-1.135.672-2.434 1.027-3.754 1.027h-168.712c-1.321 0-2.619-.355-3.754-1.027-2.837-1.679-4.222-5.071-3.369-8.249 1.073-4-1.299-8.114-5.3-9.188z"/><path d="m400.049 486.545-62.9-219.935h3.958c9.38 0 18.604-2.525 26.675-7.302 21.702-12.844 31.172-39.358 22.517-63.044l-26.35-72.116c-1.422-3.891-5.728-5.893-9.618-4.471-3.891 1.421-5.892 5.728-4.471 9.618l26.35 72.116c6.176 16.903-.582 35.823-16.068 44.988-5.759 3.409-12.341 5.21-19.035 5.21h-168.711c-6.693 0-13.275-1.802-19.035-5.21-15.486-9.166-22.244-28.085-16.068-44.988l54.696-149.691c8.025-21.963 29.127-36.72 52.511-36.72h24.504c23.383 0 44.486 14.757 52.511 36.72l18.044 49.384c1.421 3.891 5.727 5.891 9.619 4.47 3.89-1.421 5.892-5.728 4.47-9.619l-18.044-49.383c-10.179-27.856-36.943-46.572-66.601-46.572h-24.503c-29.657 0-56.421 18.716-66.6 46.572l-54.696 149.692c-8.655 23.686.815 50.201 22.517 63.044 8.071 4.777 17.295 7.302 26.675 7.302h.054l-38.17 133.464c-1.139 3.983 1.166 8.134 5.149 9.273.689.197 1.383.291 2.066.291 3.263 0 6.265-2.147 7.207-5.44l39.35-137.589h21.172l-79.38 225.928c-.433 1.232-1.602 2.061-2.908 2.061-1.337 0-2.115-.769-2.461-1.227s-.87-1.418-.502-2.703l16.958-59.296c1.139-3.983-1.166-8.134-5.148-9.274-3.983-1.139-8.134 1.166-9.273 5.149l-16.959 59.296c-1.575 5.506-.5 11.287 2.948 15.859s8.71 7.195 14.437 7.195c7.664 0 14.519-4.858 17.06-12.088l37.703-107.308c.447-.231.882-.496 1.288-.825l71.269-57.741 72.49 55.678c.059.045.123.075.183.118l38.677 110.078c2.54 7.23 9.396 12.088 17.06 12.088 5.727 0 10.989-2.622 14.437-7.194 3.446-4.57 4.521-10.351 2.946-15.858zm-176.275-216.094 18.18 15.326-11.29 8.828-12.109-9.3zm18.718-3.84h23.972l-12.436 9.725zm11.18 29.044 10.374 8.745-10.039 8.134-11.058-8.494zm22.242-.869-10.168-8.572 20.096-15.715 4.442 12.643zm-84.841 68.736 22.249-63.324 28.701 22.045zm75.166-41.593 29.325-23.759 22.273 63.39zm118.886 171.445c-.346.458-1.125 1.226-2.461 1.226-1.306 0-2.475-.828-2.908-2.061l-79.38-225.928h21.172l64.08 224.059c.367 1.285-.158 2.246-.503 2.704z"/></g></svg>